<svg xmlns="http://www.w3.org/2000/svg" viewBox="0 0 119.78 201.38"><defs><style>.cls-1{fill:#fff;}</style></defs><title>50_base_color</title><g id="Layer_2" data-name="Layer 2"><g id="Layer_1-2" data-name="Layer 1"><path class="cls-1" d="M119.78,138.42v27.37a4.18,4.18,0,0,1-2.12,3.64L86.12,187.38l-1.33.76L62.46,200.83a4.19,4.19,0,0,1-4.14,0l-56.2-32A4.2,4.2,0,0,1,0,165.21V75.1a4.19,4.19,0,0,1,6.26-3.65l17.57,10A4.19,4.19,0,0,1,26,85.08V150.7a4.18,4.18,0,0,0,2.12,3.64l30,17a4.19,4.19,0,0,0,4.14,0l27-15.37a4.19,4.19,0,0,0,0-7.28L61.34,132.9a4.18,4.18,0,0,1-2.12-3.64V108.75a4.19,4.19,0,0,1,6.26-3.64l52.18,29.67A4.18,4.18,0,0,1,119.78,138.42Z"/><path class="cls-1" d="M119.78,67.59v34.75a4.18,4.18,0,0,1-2.12,3.64l-17.58,10a4.19,4.19,0,0,1-6.26-3.65V83.59A4.17,4.17,0,0,0,91.71,80L2.12,29A4.2,4.2,0,0,1,0,25.34V4.19A4.19,4.19,0,0,1,6.26.55L117.66,64A4.2,4.2,0,0,1,119.78,67.59Z"/></g></g></svg>